<?xml version="1.0" standalone="no"?>
<!DOCTYPE svg PUBLIC "-//W3C//DTD SVG 20010904//EN"
 "http://www.w3.org/TR/2001/REC-SVG-20010904/DTD/svg10.dtd">
<svg version="1.0" xmlns="http://www.w3.org/2000/svg"
 width="300.000000pt" height="237.000000pt" viewBox="0 0 300.000000 237.000000"
 preserveAspectRatio="xMidYMid meet">
<metadata>
Created by potrace 1.10, written by Peter Selinger 2001-2011
</metadata>
<g transform="translate(0.000000,237.000000) scale(0.100000,-0.100000)"
fill="#ffffff" stroke="none">
<path d="M1515 1359 c-27 -5 -65 -11 -82 -14 -51 -9 -39 -25 17 -25 54 0 61
-10 41 -63 -8 -21 -6 -26 9 -30 16 -4 20 -16 22 -78 l3 -74 32 -3 32 -3 3 150
c3 129 1 151 -12 150 -8 -1 -37 -5 -65 -10z"/>
<path d="M1610 1331 c0 -5 11 -12 24 -15 13 -3 32 -9 43 -13 32 -11 8 6 -30
22 -20 8 -37 11 -37 6z"/>
<path d="M1615 1301 c6 -5 24 -13 40 -17 39 -9 30 0 -15 15 -19 6 -30 7 -25 2z"/>
<path d="M1640 1265 c19 -7 42 -13 50 -13 8 0 -1 6 -20 13 -19 7 -42 13 -50
13 -8 0 1 -6 20 -13z"/>
<path d="M1625 1241 c11 -5 38 -11 60 -14 l40 -6 -40 14 c-22 7 -49 14 -60 14
-20 0 -20 0 0 -8z"/>
<path d="M1618 1218 c6 -6 18 -8 28 -6 14 3 12 5 -9 10 -19 3 -25 2 -19 -4z"/>
<path d="M1308 1203 c-33 -4 -38 -8 -38 -29 0 -25 1 -25 83 -22 81 3 82 3 85
31 3 26 2 27 -45 25 -26 -1 -65 -3 -85 -5z"/>
<path d="M1678 1203 c7 -3 16 -2 19 1 4 3 -2 6 -13 5 -11 0 -14 -3 -6 -6z"/>
<path d="M1468 1175 c-4 -20 -1 -25 14 -25 14 0 19 6 16 22 -4 31 -25 33 -30
3z"/>
<path d="M1618 1193 c7 -3 16 -2 19 1 4 3 -2 6 -13 5 -11 0 -14 -3 -6 -6z"/>
<path d="M1668 1183 c7 -3 16 -2 19 1 4 3 -2 6 -13 5 -11 0 -14 -3 -6 -6z"/>
<path d="M1618 1173 c7 -3 16 -2 19 1 4 3 -2 6 -13 5 -11 0 -14 -3 -6 -6z"/>
<path d="M1618 1143 c7 -3 16 -2 19 1 4 3 -2 6 -13 5 -11 0 -14 -3 -6 -6z"/>
<path d="M1295 1125 c-5 -2 -26 -6 -46 -9 -19 -4 -44 -13 -55 -21 -17 -14 -12
-15 66 -12 47 3 96 8 109 12 21 7 23 6 19 -13 -3 -12 -1 -26 6 -31 20 -17 38
4 34 40 l-3 34 -60 2 c-33 1 -64 0 -70 -2z"/>
<path d="M1464 1106 c-9 -22 2 -46 21 -46 12 0 15 8 13 27 -3 30 -25 42 -34
19z"/>
<path d="M1638 1093 c12 -2 30 -2 40 0 9 3 -1 5 -23 4 -22 0 -30 -2 -17 -4z"/>
<path d="M1600 1045 c0 -10 -11 -15 -37 -16 -21 -1 -49 -5 -63 -9 -21 -7 -18
-8 18 -9 29 -1 45 -6 49 -17 4 -12 8 -11 17 8 10 18 19 22 46 20 19 -1 43 -10
55 -20 11 -9 14 -10 8 -2 -21 23 -16 28 40 35 28 3 71 9 95 12 33 4 43 2 42
-8 -4 -28 0 -49 10 -49 6 0 10 9 10 20 0 11 7 20 15 20 8 0 15 7 15 15 0 13
-24 15 -160 15 -136 0 -160 -2 -160 -15z"/>
<path d="M1145 1010 c-8 -13 5 -18 65 -21 44 -3 55 -1 58 12 2 13 -7 16 -58
17 -33 0 -62 -4 -65 -8z"/>
<path d="M1385 1012 c-5 -4 -15 -16 -21 -27 -10 -18 -22 -20 -133 -20 -84 0
-121 -3 -121 -11 0 -8 39 -13 118 -16 64 -2 122 -3 127 -1 6 2 17 18 25 36 10
22 24 34 45 38 l30 7 -30 1 c-16 0 -34 -3 -40 -7z"/>
<path d="M1293 983 c4 -3 10 -3 14 0 3 4 0 7 -7 7 -7 0 -10 -3 -7 -7z"/>
<path d="M1407 972 c-17 -19 -22 -57 -11 -86 4 -11 19 -16 47 -16 47 0 44 11
-5 13 -29 2 -33 6 -36 33 -4 38 20 63 43 44 18 -15 20 1 3 18 -16 16 -22 15
-41 -6z"/>
<path d="M1661 964 c0 -11 3 -14 6 -6 3 7 2 16 -1 19 -3 4 -6 -2 -5 -13z"/>
<path d="M1593 930 c2 -25 30 -23 35 3 2 11 -3 17 -17 17 -14 0 -19 -6 -18
-20z"/>
<path d="M1170 912 c0 -4 9 -13 21 -20 16 -10 24 -10 35 -1 23 19 16 29 -21
29 -19 0 -35 -3 -35 -8z"/>
<path d="M1563 903 c4 -3 10 -3 14 0 3 4 0 7 -7 7 -7 0 -10 -3 -7 -7z"/>
<path d="M1533 893 c4 -3 10 -3 14 0 3 4 0 7 -7 7 -7 0 -10 -3 -7 -7z"/>
<path d="M1493 883 c4 -3 10 -3 14 0 3 4 0 7 -7 7 -7 0 -10 -3 -7 -7z"/>
<path d="M411 761 c-12 -12 -21 -28 -21 -36 0 -19 35 -55 54 -55 19 0 30 -32
14 -42 -19 -12 -29 -10 -50 9 -16 14 -18 14 -18 1 0 -33 77 -39 105 -8 25 28
13 62 -30 83 -19 9 -35 21 -35 27 0 17 31 24 51 11 15 -9 19 -8 19 4 0 8 -6
15 -12 15 -7 0 -23 3 -35 6 -14 4 -28 -1 -42 -15z"/>
<path d="M540 777 c0 -1 4 -17 9 -35 6 -18 6 -54 2 -82 -7 -44 -6 -50 10 -50
14 0 16 6 12 40 -5 34 -3 40 13 40 10 0 35 -19 56 -42 l37 -43 1 72 c0 39 5
75 10 78 17 10 11 25 -9 25 -17 0 -19 -5 -14 -35 4 -26 2 -35 -9 -35 -8 0 -29
16 -48 35 -19 19 -42 35 -52 35 -10 0 -18 -1 -18 -3z"/>
<path d="M735 695 c0 -85 0 -85 26 -85 23 0 26 4 21 25 -2 13 -1 32 2 41 9 23
32 2 40 -36 4 -24 11 -30 31 -30 15 0 24 3 22 8 -29 50 -38 82 -28 101 14 25
14 27 -5 45 -10 10 -33 16 -62 16 l-47 0 0 -85z m83 37 c2 -14 -3 -25 -13 -29
-21 -7 -34 12 -27 39 6 26 36 19 40 -10z"/>
<path d="M1005 755 c-49 -48 -21 -145 41 -145 28 0 64 16 64 28 0 5 -16 6 -35
4 -32 -4 -36 -1 -50 31 -30 72 20 118 64 60 l20 -28 1 31 c0 27 -4 32 -31 38
-46 9 -48 8 -74 -19z"/>
<path d="M1757 762 c-28 -30 -21 -60 18 -84 22 -12 35 -27 33 -37 -5 -25 -34
-25 -57 0 -23 25 -27 19 -11 -12 13 -23 81 -27 99 -5 23 27 9 70 -26 85 -20 9
-33 22 -33 33 0 20 21 23 51 8 12 -7 19 -7 19 -1 0 13 -33 31 -58 31 -10 0
-26 -8 -35 -18z"/>
<path d="M2279 764 c-12 -14 -11 -16 5 -13 11 2 21 10 24 17 5 17 -13 15 -29
-4z"/>
<path d="M1188 718 c21 -21 13 -43 -19 -55 -21 -8 -30 -17 -27 -30 2 -14 14
-18 50 -20 l48 -2 -6 47 c-4 26 -13 53 -22 60 -20 16 -40 16 -24 0z m10 -75
c-5 -25 -28 -28 -28 -4 0 12 6 21 16 21 9 0 14 -7 12 -17z"/>
<path d="M1290 723 c-11 -3 -15 -18 -15 -58 0 -53 1 -55 28 -55 24 0 26 2 17
19 -5 11 -10 29 -10 41 0 19 4 21 25 16 18 -5 27 -2 31 8 10 25 -5 37 -27 23
-13 -8 -22 -9 -27 -2 -4 6 -14 9 -22 8z"/>
<path d="M1456 709 c8 -9 12 -24 8 -33 -3 -9 -2 -16 4 -16 7 0 32 49 32 64 0
1 -13 1 -29 1 -27 0 -28 -2 -15 -16z"/>
<path d="M1552 714 c-25 -17 -31 -71 -10 -92 20 -20 65 -14 82 10 21 30 20 54
-4 78 -24 24 -38 25 -68 4z m41 -11 c12 -21 15 -60 6 -73 -8 -13 -11 -12 -24
4 -20 26 -20 76 -1 76 8 0 17 -3 19 -7z"/>
<path d="M1900 710 c-38 -38 -19 -100 30 -100 38 0 48 18 13 22 -40 4 -37 32
5 36 17 2 32 7 32 13 0 12 -37 49 -50 49 -5 0 -19 -9 -30 -20z m50 -16 c0 -8
-9 -14 -20 -14 -22 0 -28 26 -7 33 16 6 27 -1 27 -19z"/>
<path d="M2076 721 c-4 -6 -18 -8 -31 -5 -33 8 -47 -2 -33 -25 8 -13 8 -26 0
-50 -11 -30 -10 -31 18 -31 27 0 28 1 23 42 -6 39 -5 41 16 35 15 -3 24 0 28
9 7 19 -12 41 -21 25z"/>
<path d="M2131 721 c-7 -5 -9 -10 -3 -12 5 -2 21 -26 35 -54 l25 -50 27 58
c15 32 24 61 21 64 -5 5 -9 -4 -22 -45 -6 -21 -28 -9 -34 19 -6 26 -27 34 -49
20z"/>
<path d="M2380 712 c-40 -33 -23 -102 25 -102 32 0 38 12 12 24 -25 13 -35 52
-17 70 8 8 15 7 24 -6 16 -22 26 -23 26 -3 0 12 -28 35 -43 35 -3 0 -15 -8
-27 -18z"/>
<path d="M2502 714 c-18 -12 -22 -24 -20 -51 4 -43 24 -59 64 -48 l29 8 -30 6
c-42 9 -47 41 -6 41 24 0 31 4 31 20 0 10 -9 24 -19 30 -25 13 -22 13 -49 -6z
m48 -14 c0 -14 -20 -22 -37 -16 -12 5 -13 9 -3 21 11 14 40 10 40 -5z"/>
<path d="M2616 718 c-22 -12 -20 -35 4 -55 11 -10 20 -24 20 -31 0 -9 -7 -12
-20 -9 -11 3 -20 1 -20 -5 0 -5 17 -8 38 -6 47 4 57 36 18 62 -33 21 -34 40
-1 34 14 -3 25 -2 25 2 0 12 -47 18 -64 8z"/>
<path d="M1154 708 c-4 -7 -3 -8 4 -4 12 7 16 16 8 16 -3 0 -8 -5 -12 -12z"/>
<path d="M1405 711 c-3 -6 -5 -22 -5 -38 1 -15 0 -46 -2 -68 -3 -33 0 -40 17
-42 11 -2 14 0 8 3 -26 12 -14 34 18 34 26 0 31 -3 26 -20 -3 -11 -2 -20 3
-20 14 0 32 29 28 47 -3 14 -11 17 -41 15 -28 -3 -37 0 -37 12 0 9 5 16 10 16
7 0 7 7 0 21 -7 11 -9 27 -6 35 6 15 -9 20 -19 5z"/>
<path d="M2279 718 c0 -2 -1 -27 -2 -56 -2 -49 -1 -52 23 -52 24 0 25 2 22 55
-3 46 -7 55 -23 55 -10 0 -19 -1 -20 -2z"/>
</g>
</svg>
